<svg width="21" height="21" viewBox="0 0 21 21" fill="none" xmlns="http://www.w3.org/2000/svg">
<path d="M3.21238 2.47821C3.21181 2.47821 3.21118 2.47821 3.21061 2.47821C3.01199 2.47821 2.82519 2.55563 2.68412 2.69634C2.54151 2.83861 2.46295 3.02803 2.46295 3.22969V14.498C2.46295 14.9112 2.80044 15.2482 3.21535 15.2492C4.96451 15.2534 7.89504 15.618 9.9167 17.7336V5.94103C9.9167 5.80096 9.88093 5.66937 9.8134 5.56048C8.15411 2.88831 4.9655 2.48231 3.21238 2.47821Z" fill="#2DDA93"/>
<path d="M18.5371 14.498V3.22963C18.5371 3.02798 18.4585 2.83855 18.3159 2.69629C18.1749 2.55558 17.9879 2.47816 17.7895 2.47816C17.7889 2.47816 17.7882 2.47816 17.7877 2.47816C16.0346 2.48233 12.846 2.88833 11.1867 5.5605C11.1191 5.66939 11.0834 5.80098 11.0834 5.94105V17.7335C13.1051 15.6179 16.0356 15.2533 17.7848 15.2492C18.1996 15.2481 18.5371 14.9111 18.5371 14.498Z" fill="#2DDA93"/>
<path d="M20.2487 5.07687H19.7038V14.498C19.7038 15.553 18.8442 16.4133 17.7876 16.4159C16.3039 16.4195 13.8576 16.7096 12.1251 18.3493C15.1215 17.6157 18.2803 18.0926 20.0805 18.5028C20.3053 18.554 20.5375 18.5012 20.7176 18.3576C20.8971 18.2144 21 18.0004 21 17.7707V5.82821C21.0001 5.41394 20.663 5.07687 20.2487 5.07687Z" fill="#2DDA93"/>
<path d="M1.29621 14.498V5.07687H0.751336C0.337133 5.07687 0 5.41394 0 5.82821V17.7705C0 18.0003 0.10295 18.2142 0.282405 18.3574C0.462355 18.5009 0.694417 18.554 0.919549 18.5026C2.71976 18.0923 5.87861 17.6155 8.8749 18.3491C7.14243 16.7094 4.6961 16.4194 3.21245 16.4159C2.15587 16.4133 1.29621 15.553 1.29621 14.498Z" fill="#2DDA93"/>
</svg>
