<svg width="13" height="17" viewBox="0 0 13 17" fill="none" xmlns="http://www.w3.org/2000/svg">
<path d="M6.49963 0C3.24672 0 0.600342 2.64677 0.600342 5.89976C0.600342 9.03104 5.95287 16.3468 6.18077 16.6566L6.39347 16.9461C6.41835 16.9801 6.45795 17 6.49963 17C6.54194 17 6.5813 16.9801 6.60643 16.9461L6.819 16.6566C7.04703 16.3468 12.3994 9.03104 12.3994 5.89976C12.3994 2.64677 9.75262 0 6.49963 0ZM6.49963 3.78648C7.66515 3.78648 8.61291 4.73427 8.61291 5.89976C8.61291 7.06464 7.66511 8.01304 6.49963 8.01304C5.33479 8.01304 4.38634 7.06464 4.38634 5.89976C4.38634 4.73427 5.33475 3.78648 6.49963 3.78648Z" fill="white"/>
</svg>
