<svg width="24" height="24" viewBox="0 0 24 24" fill="none" xmlns="http://www.w3.org/2000/svg">
<path fill-rule="evenodd" clip-rule="evenodd" d="M2.25006 6.14286C2.25006 5.23553 2.69232 4.5 3.23787 4.5H21.5123C22.0578 4.5 22.5001 5.23553 22.5001 6.14286V20.1071C22.5001 21.0145 22.0578 21.75 21.5123 21.75H3.23787C2.69232 21.75 2.25006 21.0145 2.25006 20.1071V6.14286ZM8.50005 8.68333C8.50005 9.75108 7.60462 10.6167 6.50005 10.6167C5.39548 10.6167 4.50005 9.75108 4.50005 8.68333C4.50005 7.61558 5.39548 6.75 6.50005 6.75C7.60462 6.75 8.50005 7.61558 8.50005 8.68333ZM9.40388 9C9.18084 9 9.00003 9.16789 9.00003 9.375C9.00003 9.58211 9.18084 9.75 9.40388 9.75H19.0962C19.3192 9.75 19.5 9.58211 19.5 9.375C19.5 9.16789 19.3192 9 19.0962 9H9.40388ZM9.00003 7.875C9.00003 7.66789 9.18319 7.5 9.40912 7.5H13.0909C13.3169 7.5 13.5 7.66789 13.5 7.875C13.5 8.08211 13.3169 8.25 13.0909 8.25H9.40912C9.18319 8.25 9.00003 8.08211 9.00003 7.875ZM5.26832 12C4.84401 12 4.50003 12.3198 4.50003 12.7143V18.7857C4.50003 19.1802 4.84401 19.5 5.26832 19.5H19.4817C19.9061 19.5 20.25 19.1802 20.25 18.7857V12.7143C20.25 12.3198 19.9061 12 19.4817 12H5.26832Z" fill="#D6D1D1"/>
</svg>
