<svg width="154" height="77" viewBox="0 0 154 77" fill="none" xmlns="http://www.w3.org/2000/svg">
<path fill-rule="evenodd" clip-rule="evenodd" d="M-6 8.68572L1.08267 6.67648C7.72267 4.66723 21.888 1.65337 35.6107 3.66261C49.3333 4.66723 63.056 12.7042 77.2213 21.7458C90.944 31.792 104.667 42.8429 118.389 40.8336C132.555 38.8244 146.277 23.755 152.917 16.7227L160 8.68572V77H152.917C146.277 77 132.555 77 118.389 77C104.667 77 90.944 77 77.2213 77C63.056 77 49.3333 77 35.6107 77C21.888 77 7.72267 77 1.08267 77H-6V8.68572Z" fill="url(#paint0_linear_1_69)"/>
<path d="M-6 8.67493L1.08267 6.6695C7.72267 4.66407 21.888 1.65593 35.6107 3.66135C49.3333 4.66407 63.056 12.6858 77.2213 21.7102C90.944 31.7374 104.667 42.7672 118.389 40.7618C132.555 38.7564 146.277 23.7156 152.917 16.6966L160 8.67493" stroke="url(#paint1_linear_1_69)" stroke-width="5"/>
<defs>
<linearGradient id="paint0_linear_1_69" x1="58.8507" y1="77.342" x2="44.1989" y2="-45.3224" gradientUnits="userSpaceOnUse">
<stop stop-color="#5142AB"/>
<stop offset="1" stop-color="#82B3CF"/>
</linearGradient>
<linearGradient id="paint1_linear_1_69" x1="27" y1="-23" x2="95" y2="41" gradientUnits="userSpaceOnUse">
<stop stop-color="#6BFCEA"/>
<stop offset="1" stop-color="#67CCF8"/>
</linearGradient>
</defs>
</svg>
