<svg width="24" height="24" viewBox="0 0 24 24" fill="none" xmlns="http://www.w3.org/2000/svg">
<path fill-rule="evenodd" clip-rule="evenodd" d="M13.9705 3.85385C13.9705 4.8777 14.8005 5.70769 15.8244 5.70769C16.8482 5.70769 17.6782 4.8777 17.6782 3.85385C17.6782 2.83 16.8482 2 15.8244 2C14.8005 2 13.9705 2.83 13.9705 3.85385ZM9.3309 11.4523C8.90628 12.1773 6.38013 16.4723 4.1709 19.7696C3.26436 20.9358 5.07551 22.3292 5.9809 21.1654C6.85132 20.0463 7.72214 18.5004 8.59304 16.9544C9.20642 15.8655 9.81985 14.7765 10.4332 13.8365C10.5224 14.0573 10.6832 14.2577 10.9386 14.4031C12.0236 15.02 12.9732 15.8462 13.7786 16.7958C13.5857 17.5595 13.3928 18.323 13.1998 19.0864C13.0714 19.5943 12.9431 20.1022 12.8147 20.61C12.4536 22.0408 14.704 22.4446 15.0621 21.0231C15.3997 19.6892 15.7367 18.3562 16.074 17.0208C16.1036 16.9038 16.1101 16.7962 16.1071 16.6923C16.1894 16.4142 16.1474 16.0981 15.9028 15.7908C15.0263 14.6888 14.0259 13.7338 12.8809 12.9442C13.4017 11.9319 13.9451 10.9335 14.5017 9.94115C15.4205 11.2138 16.6324 12.1808 18.3197 12.6746C19.6617 13.0669 20.2309 10.9796 18.8947 10.5888C17.1878 10.0888 16.1705 8.89077 15.4621 7.35654C15.2397 6.28846 14.0117 5.54923 12.964 5.82962C12.9514 5.82962 12.9394 5.82892 12.9274 5.82823C12.9085 5.82713 12.8897 5.82604 12.869 5.82769C11.5836 5.92722 10.2983 6.02709 9.01262 6.12697L8.71128 6.15038C7.68258 6.23026 7.09326 7.64582 6.64239 8.72884C6.5223 9.0173 6.41203 9.28217 6.3059 9.49192C5.67705 10.7335 7.54282 11.8288 8.17321 10.5838C8.33822 10.2582 8.50304 9.9324 8.66787 9.60655C8.89415 9.15926 9.12047 8.71187 9.34744 8.26462C9.47771 8.25451 9.60808 8.24441 9.73851 8.23431C10.1792 8.20016 10.6205 8.16596 11.0609 8.13154C10.5224 9.09731 9.99475 10.0696 9.49013 11.0531C9.42013 11.1873 9.36936 11.3208 9.3309 11.4523Z" fill="url(#paint0_linear_1_103)"/>
<defs>
<linearGradient id="paint0_linear_1_103" x1="11.7899" y1="2" x2="11.7899" y2="21.9078" gradientUnits="userSpaceOnUse">
<stop stop-color="#5A4BAF"/>
<stop offset="1" stop-color="#9874C9"/>
</linearGradient>
</defs>
</svg>
